<svg viewBox="0 0 200 200" xmlns="http://www.w3.org/2000/svg">
  <path fill="#D0E2FF" d="M30.8,-51.2C44.9,-45.3,64.6,-47,75.2,-39.7C85.7,-32.5,87.1,-16.2,82.8,-2.4C78.6,11.3,68.8,22.7,60.5,34C52.3,45.2,45.7,56.5,35.9,63C26.1,69.5,13,71.2,-1.5,73.8C-16,76.4,-32.1,79.9,-43.7,74.4C-55.3,68.9,-62.4,54.5,-62.9,40.7C-63.4,26.8,-57.2,13.4,-56.9,0.2C-56.6,-13,-62.1,-26.1,-59.3,-35.8C-56.4,-45.5,-45.1,-52,-33.8,-59.5C-22.5,-67,-11.2,-75.5,-1.4,-73.1C8.4,-70.6,16.8,-57.1,30.8,-51.2Z" transform="translate(100 100)" />
</svg>
