<svg viewBox="0 0 200 200" xmlns="http://www.w3.org/2000/svg">
  <path fill="#FF0066" d="M42.6,-74.2C55.1,-66.5,65.2,-55,70.8,-42C76.4,-29,77.5,-14.5,77.1,-0.2C76.7,14,74.8,28.1,68.8,40.4C62.8,52.7,52.8,63.4,40.6,70C28.5,76.7,14.2,79.4,0.7,78.2C-12.8,76.9,-25.7,71.8,-39.8,66.3C-54,60.8,-69.6,55,-78.6,43.9C-87.5,32.8,-90,16.4,-88.4,0.9C-86.8,-14.6,-81.3,-29.1,-73.3,-42C-65.3,-54.9,-55,-66.1,-42.4,-73.8C-29.7,-81.5,-14.9,-85.6,0.1,-85.8C15,-85.9,30,-81.9,42.6,-74.2Z" transform="translate(100 100)" />
</svg>
